<svg xmlns="http://www.w3.org/2000/svg" xmlns:xlink="http://www.w3.org/1999/xlink" width="108" zoomAndPan="magnify" viewBox="0 0 81 30.000001" height="40" preserveAspectRatio="xMidYMid meet" version="1.0"><defs><g/></defs><g fill="#ffffff" fill-opacity="1"><g transform="translate(2.497227, 19.935488)"><g><path d="M 1.65625 0 L 1.65625 -13.125 L 4.4375 -13.125 L 4.4375 -2.296875 L 9.765625 -2.296875 L 9.765625 0 Z M 1.65625 0 "/></g></g></g><g fill="#ffffff" fill-opacity="1"><g transform="translate(12.882729, 19.935488)"><g><path d="M 1.3125 -12.640625 C 1.3125 -13.523438 1.8125 -13.96875 2.8125 -13.96875 C 3.800781 -13.96875 4.296875 -13.523438 4.296875 -12.640625 C 4.296875 -12.210938 4.171875 -11.878906 3.921875 -11.640625 C 3.679688 -11.398438 3.3125 -11.28125 2.8125 -11.28125 C 1.8125 -11.28125 1.3125 -11.734375 1.3125 -12.640625 Z M 4.171875 0 L 1.4375 0 L 1.4375 -10.046875 L 4.171875 -10.046875 Z M 4.171875 0 "/></g></g></g><g fill="#ffffff" fill-opacity="1"><g transform="translate(18.492877, 19.935488)"><g><path d="M 10.171875 -10.046875 L 10.171875 -8.640625 L 8.609375 -8.25 C 8.890625 -7.789062 9.03125 -7.285156 9.03125 -6.734375 C 9.03125 -5.660156 8.65625 -4.820312 7.90625 -4.21875 C 7.15625 -3.613281 6.113281 -3.3125 4.78125 -3.3125 L 4.28125 -3.34375 L 3.875 -3.390625 C 3.59375 -3.171875 3.453125 -2.929688 3.453125 -2.671875 C 3.453125 -2.273438 3.957031 -2.078125 4.96875 -2.078125 L 6.671875 -2.078125 C 7.773438 -2.078125 8.613281 -1.835938 9.1875 -1.359375 C 9.769531 -0.890625 10.0625 -0.195312 10.0625 0.71875 C 10.0625 1.894531 9.570312 2.804688 8.59375 3.453125 C 7.613281 4.097656 6.207031 4.421875 4.375 4.421875 C 2.96875 4.421875 1.894531 4.175781 1.15625 3.6875 C 0.414062 3.195312 0.046875 2.515625 0.046875 1.640625 C 0.046875 1.035156 0.234375 0.523438 0.609375 0.109375 C 0.992188 -0.296875 1.550781 -0.582031 2.28125 -0.75 C 2 -0.875 1.753906 -1.070312 1.546875 -1.34375 C 1.335938 -1.613281 1.234375 -1.898438 1.234375 -2.203125 C 1.234375 -2.585938 1.34375 -2.90625 1.5625 -3.15625 C 1.78125 -3.414062 2.097656 -3.671875 2.515625 -3.921875 C 1.992188 -4.140625 1.578125 -4.5 1.265625 -5 C 0.960938 -5.507812 0.8125 -6.101562 0.8125 -6.78125 C 0.8125 -7.882812 1.164062 -8.734375 1.875 -9.328125 C 2.59375 -9.929688 3.613281 -10.234375 4.9375 -10.234375 C 5.21875 -10.234375 5.550781 -10.207031 5.9375 -10.15625 C 6.320312 -10.101562 6.566406 -10.066406 6.671875 -10.046875 Z M 2.421875 1.421875 C 2.421875 1.796875 2.601562 2.085938 2.96875 2.296875 C 3.332031 2.515625 3.835938 2.625 4.484375 2.625 C 5.472656 2.625 6.242188 2.488281 6.796875 2.21875 C 7.359375 1.957031 7.640625 1.59375 7.640625 1.125 C 7.640625 0.75 7.472656 0.488281 7.140625 0.34375 C 6.804688 0.195312 6.296875 0.125 5.609375 0.125 L 4.1875 0.125 C 3.6875 0.125 3.265625 0.238281 2.921875 0.46875 C 2.585938 0.707031 2.421875 1.023438 2.421875 1.421875 Z M 3.421875 -6.75 C 3.421875 -6.207031 3.546875 -5.773438 3.796875 -5.453125 C 4.046875 -5.140625 4.425781 -4.984375 4.9375 -4.984375 C 5.445312 -4.984375 5.820312 -5.140625 6.0625 -5.453125 C 6.300781 -5.773438 6.421875 -6.207031 6.421875 -6.75 C 6.421875 -7.957031 5.925781 -8.5625 4.9375 -8.5625 C 3.925781 -8.5625 3.421875 -7.957031 3.421875 -6.75 Z M 3.421875 -6.75 "/></g></g></g><g fill="#ffffff" fill-opacity="1"><g transform="translate(28.878379, 19.935488)"><g><path d="M 7.8125 0 L 7.28125 -1.359375 L 7.203125 -1.359375 C 6.742188 -0.785156 6.269531 -0.382812 5.78125 -0.15625 C 5.300781 0.0625 4.664062 0.171875 3.875 0.171875 C 2.914062 0.171875 2.15625 -0.0976562 1.59375 -0.640625 C 1.039062 -1.191406 0.765625 -1.976562 0.765625 -3 C 0.765625 -4.0625 1.140625 -4.84375 1.890625 -5.34375 C 2.640625 -5.851562 3.765625 -6.140625 5.265625 -6.203125 L 7 -6.25 L 7 -6.6875 C 7 -7.707031 6.476562 -8.21875 5.4375 -8.21875 C 4.632812 -8.21875 3.691406 -7.972656 2.609375 -7.484375 L 1.703125 -9.34375 C 2.859375 -9.945312 4.140625 -10.25 5.546875 -10.25 C 6.890625 -10.25 7.921875 -9.953125 8.640625 -9.359375 C 9.359375 -8.773438 9.71875 -7.882812 9.71875 -6.6875 L 9.71875 0 Z M 7 -4.65625 L 5.9375 -4.609375 C 5.144531 -4.585938 4.550781 -4.445312 4.15625 -4.1875 C 3.769531 -3.925781 3.578125 -3.523438 3.578125 -2.984375 C 3.578125 -2.210938 4.019531 -1.828125 4.90625 -1.828125 C 5.539062 -1.828125 6.046875 -2.007812 6.421875 -2.375 C 6.804688 -2.738281 7 -3.222656 7 -3.828125 Z M 7 -4.65625 "/></g></g></g><g fill="#ffffff" fill-opacity="1"><g transform="translate(39.98198, 19.935488)"><g/></g></g><g fill="#ffffff" fill-opacity="1"><g transform="translate(44.757333, 19.935488)"><g><path d="M 7.234375 -11 C 6.179688 -11 5.367188 -10.601562 4.796875 -9.8125 C 4.222656 -9.03125 3.9375 -7.9375 3.9375 -6.53125 C 3.9375 -3.601562 5.035156 -2.140625 7.234375 -2.140625 C 8.148438 -2.140625 9.265625 -2.367188 10.578125 -2.828125 L 10.578125 -0.5 C 9.503906 -0.0507812 8.300781 0.171875 6.96875 0.171875 C 5.0625 0.171875 3.597656 -0.40625 2.578125 -1.5625 C 1.566406 -2.71875 1.0625 -4.378906 1.0625 -6.546875 C 1.0625 -7.910156 1.3125 -9.101562 1.8125 -10.125 C 2.3125 -11.15625 3.023438 -11.941406 3.953125 -12.484375 C 4.890625 -13.035156 5.984375 -13.3125 7.234375 -13.3125 C 8.503906 -13.3125 9.785156 -13.003906 11.078125 -12.390625 L 10.171875 -10.125 C 9.679688 -10.363281 9.1875 -10.566406 8.6875 -10.734375 C 8.195312 -10.910156 7.710938 -11 7.234375 -11 Z M 7.234375 -11 "/></g></g></g><g fill="#ffffff" fill-opacity="1"><g transform="translate(56.471317, 19.935488)"><g><path d="M 1.046875 -1.28125 C 1.046875 -1.78125 1.179688 -2.160156 1.453125 -2.421875 C 1.722656 -2.679688 2.113281 -2.8125 2.625 -2.8125 C 3.125 -2.8125 3.507812 -2.675781 3.78125 -2.40625 C 4.050781 -2.144531 4.1875 -1.769531 4.1875 -1.28125 C 4.1875 -0.8125 4.050781 -0.4375 3.78125 -0.15625 C 3.507812 0.113281 3.125 0.25 2.625 0.25 C 2.125 0.25 1.734375 0.113281 1.453125 -0.15625 C 1.179688 -0.425781 1.046875 -0.800781 1.046875 -1.28125 Z M 1.046875 -1.28125 "/></g></g></g><g fill="#ffffff" fill-opacity="1"><g transform="translate(61.713435, 19.935488)"><g><path d="M 4.4375 -6.953125 L 5.359375 -6.953125 C 6.210938 -6.953125 6.847656 -7.117188 7.265625 -7.453125 C 7.691406 -7.796875 7.90625 -8.289062 7.90625 -8.9375 C 7.90625 -9.582031 7.726562 -10.0625 7.375 -10.375 C 7.019531 -10.6875 6.460938 -10.84375 5.703125 -10.84375 L 4.4375 -10.84375 Z M 10.71875 -9.03125 C 10.71875 -7.625 10.273438 -6.546875 9.390625 -5.796875 C 8.515625 -5.046875 7.257812 -4.671875 5.625 -4.671875 L 4.4375 -4.671875 L 4.4375 0 L 1.65625 0 L 1.65625 -13.125 L 5.84375 -13.125 C 7.4375 -13.125 8.644531 -12.78125 9.46875 -12.09375 C 10.300781 -11.414062 10.71875 -10.394531 10.71875 -9.03125 Z M 10.71875 -9.03125 "/></g></g></g><g fill="#ffffff" fill-opacity="1"><g transform="translate(73.256865, 19.935488)"><g><path d="M 1.046875 -1.28125 C 1.046875 -1.78125 1.179688 -2.160156 1.453125 -2.421875 C 1.722656 -2.679688 2.113281 -2.8125 2.625 -2.8125 C 3.125 -2.8125 3.507812 -2.675781 3.78125 -2.40625 C 4.050781 -2.144531 4.1875 -1.769531 4.1875 -1.28125 C 4.1875 -0.8125 4.050781 -0.4375 3.78125 -0.15625 C 3.507812 0.113281 3.125 0.25 2.625 0.25 C 2.125 0.25 1.734375 0.113281 1.453125 -0.15625 C 1.179688 -0.425781 1.046875 -0.800781 1.046875 -1.28125 Z M 1.046875 -1.28125 "/></g></g></g><g fill="#ffffff" fill-opacity="1"><g transform="translate(78.50277, 19.935488)"><g/></g></g></svg>