<svg xmlns="http://www.w3.org/2000/svg" xmlns:xlink="http://www.w3.org/1999/xlink" width="108" zoomAndPan="magnify" viewBox="0 0 81 30.000001" height="40" preserveAspectRatio="xMidYMid meet" version="1.0"><defs><g/></defs><g fill="#263238" fill-opacity="1"><g transform="translate(5.638608, 20.685486)"><g><path d="M 1.65625 0 L 1.65625 -13.125 L 4.4375 -13.125 L 4.4375 -2.296875 L 9.765625 -2.296875 L 9.765625 0 Z M 1.65625 0 "/></g></g></g><g fill="#263238" fill-opacity="1"><g transform="translate(16.02411, 20.685486)"><g><path d="M 1.3125 -12.640625 C 1.3125 -13.523438 1.8125 -13.96875 2.8125 -13.96875 C 3.800781 -13.96875 4.296875 -13.523438 4.296875 -12.640625 C 4.296875 -12.210938 4.171875 -11.878906 3.921875 -11.640625 C 3.679688 -11.398438 3.3125 -11.28125 2.8125 -11.28125 C 1.8125 -11.28125 1.3125 -11.734375 1.3125 -12.640625 Z M 4.171875 0 L 1.4375 0 L 1.4375 -10.046875 L 4.171875 -10.046875 Z M 4.171875 0 "/></g></g></g><g fill="#263238" fill-opacity="1"><g transform="translate(21.634258, 20.685486)"><g><path d="M 10.171875 -10.046875 L 10.171875 -8.640625 L 8.609375 -8.25 C 8.890625 -7.789062 9.03125 -7.285156 9.03125 -6.734375 C 9.03125 -5.660156 8.65625 -4.820312 7.90625 -4.21875 C 7.15625 -3.613281 6.113281 -3.3125 4.78125 -3.3125 L 4.28125 -3.34375 L 3.875 -3.390625 C 3.59375 -3.171875 3.453125 -2.929688 3.453125 -2.671875 C 3.453125 -2.273438 3.957031 -2.078125 4.96875 -2.078125 L 6.671875 -2.078125 C 7.773438 -2.078125 8.613281 -1.835938 9.1875 -1.359375 C 9.769531 -0.890625 10.0625 -0.195312 10.0625 0.71875 C 10.0625 1.894531 9.570312 2.804688 8.59375 3.453125 C 7.613281 4.097656 6.207031 4.421875 4.375 4.421875 C 2.96875 4.421875 1.894531 4.175781 1.15625 3.6875 C 0.414062 3.195312 0.046875 2.515625 0.046875 1.640625 C 0.046875 1.035156 0.234375 0.523438 0.609375 0.109375 C 0.992188 -0.296875 1.550781 -0.582031 2.28125 -0.75 C 2 -0.875 1.753906 -1.070312 1.546875 -1.34375 C 1.335938 -1.613281 1.234375 -1.898438 1.234375 -2.203125 C 1.234375 -2.585938 1.34375 -2.90625 1.5625 -3.15625 C 1.78125 -3.414062 2.097656 -3.671875 2.515625 -3.921875 C 1.992188 -4.140625 1.578125 -4.5 1.265625 -5 C 0.960938 -5.507812 0.8125 -6.101562 0.8125 -6.78125 C 0.8125 -7.882812 1.164062 -8.734375 1.875 -9.328125 C 2.59375 -9.929688 3.613281 -10.234375 4.9375 -10.234375 C 5.21875 -10.234375 5.550781 -10.207031 5.9375 -10.15625 C 6.320312 -10.101562 6.566406 -10.066406 6.671875 -10.046875 Z M 2.421875 1.421875 C 2.421875 1.796875 2.601562 2.085938 2.96875 2.296875 C 3.332031 2.515625 3.835938 2.625 4.484375 2.625 C 5.472656 2.625 6.242188 2.488281 6.796875 2.21875 C 7.359375 1.957031 7.640625 1.59375 7.640625 1.125 C 7.640625 0.75 7.472656 0.488281 7.140625 0.34375 C 6.804688 0.195312 6.296875 0.125 5.609375 0.125 L 4.1875 0.125 C 3.6875 0.125 3.265625 0.238281 2.921875 0.46875 C 2.585938 0.707031 2.421875 1.023438 2.421875 1.421875 Z M 3.421875 -6.75 C 3.421875 -6.207031 3.546875 -5.773438 3.796875 -5.453125 C 4.046875 -5.140625 4.425781 -4.984375 4.9375 -4.984375 C 5.445312 -4.984375 5.820312 -5.140625 6.0625 -5.453125 C 6.300781 -5.773438 6.421875 -6.207031 6.421875 -6.75 C 6.421875 -7.957031 5.925781 -8.5625 4.9375 -8.5625 C 3.925781 -8.5625 3.421875 -7.957031 3.421875 -6.75 Z M 3.421875 -6.75 "/></g></g></g><g fill="#263238" fill-opacity="1"><g transform="translate(32.01976, 20.685486)"><g><path d="M 7.8125 0 L 7.28125 -1.359375 L 7.203125 -1.359375 C 6.742188 -0.785156 6.269531 -0.382812 5.78125 -0.15625 C 5.300781 0.0625 4.664062 0.171875 3.875 0.171875 C 2.914062 0.171875 2.15625 -0.0976562 1.59375 -0.640625 C 1.039062 -1.191406 0.765625 -1.976562 0.765625 -3 C 0.765625 -4.0625 1.140625 -4.84375 1.890625 -5.34375 C 2.640625 -5.851562 3.765625 -6.140625 5.265625 -6.203125 L 7 -6.25 L 7 -6.6875 C 7 -7.707031 6.476562 -8.21875 5.4375 -8.21875 C 4.632812 -8.21875 3.691406 -7.972656 2.609375 -7.484375 L 1.703125 -9.34375 C 2.859375 -9.945312 4.140625 -10.25 5.546875 -10.25 C 6.890625 -10.25 7.921875 -9.953125 8.640625 -9.359375 C 9.359375 -8.773438 9.71875 -7.882812 9.71875 -6.6875 L 9.71875 0 Z M 7 -4.65625 L 5.9375 -4.609375 C 5.144531 -4.585938 4.550781 -4.445312 4.15625 -4.1875 C 3.769531 -3.925781 3.578125 -3.523438 3.578125 -2.984375 C 3.578125 -2.210938 4.019531 -1.828125 4.90625 -1.828125 C 5.539062 -1.828125 6.046875 -2.007812 6.421875 -2.375 C 6.804688 -2.738281 7 -3.222656 7 -3.828125 Z M 7 -4.65625 "/></g></g></g><g fill="#263238" fill-opacity="1"><g transform="translate(43.123361, 20.685486)"><g/></g></g><g fill="#263238" fill-opacity="1"><g transform="translate(47.905492, 20.685486)"><g><path d="M 7.421875 -11.953125 C 5.984375 -11.953125 4.84375 -11.46875 4 -10.5 C 3.164062 -9.539062 2.75 -8.226562 2.75 -6.5625 C 2.75 -4.84375 3.148438 -3.515625 3.953125 -2.578125 C 4.765625 -1.640625 5.914062 -1.171875 7.40625 -1.171875 C 8.320312 -1.171875 9.367188 -1.335938 10.546875 -1.671875 L 10.546875 -0.328125 C 9.628906 0.00390625 8.503906 0.171875 7.171875 0.171875 C 5.242188 0.171875 3.753906 -0.410156 2.703125 -1.578125 C 1.648438 -2.753906 1.125 -4.421875 1.125 -6.578125 C 1.125 -7.929688 1.375 -9.117188 1.875 -10.140625 C 2.382812 -11.160156 3.113281 -11.941406 4.0625 -12.484375 C 5.019531 -13.035156 6.144531 -13.3125 7.4375 -13.3125 C 8.820312 -13.3125 10.023438 -13.0625 11.046875 -12.5625 L 10.40625 -11.25 C 9.414062 -11.71875 8.421875 -11.953125 7.421875 -11.953125 Z M 7.421875 -11.953125 "/></g></g></g><g fill="#263238" fill-opacity="1"><g transform="translate(59.50278, 20.685486)"><g><path d="M 10.125 -9.296875 C 10.125 -7.972656 9.671875 -6.953125 8.765625 -6.234375 C 7.859375 -5.515625 6.5625 -5.15625 4.875 -5.15625 L 3.328125 -5.15625 L 3.328125 0 L 1.8125 0 L 1.8125 -13.125 L 5.203125 -13.125 C 8.484375 -13.125 10.125 -11.847656 10.125 -9.296875 Z M 3.328125 -6.46875 L 4.703125 -6.46875 C 6.054688 -6.46875 7.035156 -6.6875 7.640625 -7.125 C 8.242188 -7.5625 8.546875 -8.265625 8.546875 -9.234375 C 8.546875 -10.097656 8.257812 -10.742188 7.6875 -11.171875 C 7.125 -11.597656 6.238281 -11.8125 5.03125 -11.8125 L 3.328125 -11.8125 Z M 3.328125 -6.46875 "/></g></g></g><g fill="#263238" fill-opacity="1"><g transform="translate(70.575603, 20.685486)"><g/></g></g></svg>