<svg xmlns="http://www.w3.org/2000/svg" xmlns:xlink="http://www.w3.org/1999/xlink" width="40" zoomAndPan="magnify" viewBox="0 0 30 30.000001" height="40" preserveAspectRatio="xMidYMid meet" version="1.0"><defs><clipPath id="6c07b91940"><path d="M 1.726562 1.246094 L 28.582031 1.246094 L 28.582031 28.097656 L 1.726562 28.097656 Z M 1.726562 1.246094 " clip-rule="nonzero"/></clipPath></defs><g clip-path="url(#6c07b91940)"><path fill="#263238" d="M 4.257812 28.097656 L 25.734375 28.097656 C 27.308594 28.097656 28.582031 26.824219 28.582031 25.25 L 28.582031 3.773438 C 28.582031 2.203125 27.308594 0.929688 25.734375 0.929688 L 4.257812 0.929688 C 2.6875 0.929688 1.414062 2.203125 1.414062 3.773438 L 1.414062 25.25 C 1.414062 26.824219 2.6875 28.097656 4.257812 28.097656 Z M 20.332031 19.988281 C 20.332031 22.933594 17.945312 25.324219 14.996094 25.324219 C 12.050781 25.324219 9.660156 22.933594 9.660156 19.988281 Z M 20.332031 19.988281 " fill-opacity="1" fill-rule="nonzero"/></g><path fill="#263238" d="M 14.769531 21.429688 L 14.996094 24.1875 L 15.222656 21.429688 C 15.347656 21.355469 15.429688 21.214844 15.429688 21.058594 C 15.429688 20.820312 15.234375 20.625 14.996094 20.625 C 14.757812 20.625 14.5625 20.820312 14.5625 21.058594 C 14.5625 21.214844 14.648438 21.355469 14.769531 21.429688 Z M 14.769531 21.429688 " fill-opacity="1" fill-rule="nonzero"/><path fill="#263238" d="M 16.019531 25.039062 C 16.027344 25.066406 16.058594 25.085938 16.085938 25.078125 C 16.117188 25.070312 16.136719 25.039062 16.128906 25.007812 L 15.984375 24.480469 C 15.976562 24.449219 15.945312 24.433594 15.917969 24.441406 C 15.886719 24.449219 15.867188 24.480469 15.875 24.507812 Z M 16.019531 25.039062 " fill-opacity="1" fill-rule="nonzero"/><path fill="#263238" d="M 17.027344 24.636719 C 17.042969 24.664062 17.078125 24.675781 17.105469 24.660156 C 17.128906 24.644531 17.140625 24.609375 17.125 24.582031 L 16.851562 24.109375 C 16.835938 24.082031 16.800781 24.074219 16.773438 24.089844 C 16.746094 24.101562 16.738281 24.136719 16.753906 24.164062 Z M 17.027344 24.636719 " fill-opacity="1" fill-rule="nonzero"/><path fill="#263238" d="M 17.898438 23.992188 C 17.917969 24.015625 17.957031 24.015625 17.976562 23.992188 C 18 23.96875 18 23.933594 17.976562 23.914062 L 17.589844 23.523438 C 17.570312 23.503906 17.53125 23.503906 17.511719 23.523438 C 17.488281 23.546875 17.488281 23.582031 17.511719 23.605469 Z M 17.898438 23.992188 " fill-opacity="1" fill-rule="nonzero"/><path fill="#263238" d="M 18.097656 22.867188 L 18.570312 23.140625 C 18.597656 23.15625 18.632812 23.148438 18.648438 23.121094 C 18.664062 23.09375 18.652344 23.058594 18.628906 23.042969 L 18.152344 22.769531 C 18.128906 22.753906 18.09375 22.765625 18.078125 22.792969 C 18.0625 22.816406 18.070312 22.851562 18.097656 22.867188 Z M 18.097656 22.867188 " fill-opacity="1" fill-rule="nonzero"/><path fill="#263238" d="M 14.996094 24.558594 C 14.964844 24.558594 14.941406 24.582031 14.941406 24.617188 L 14.941406 25.164062 C 14.941406 25.195312 14.964844 25.21875 14.996094 25.21875 C 15.027344 25.21875 15.054688 25.195312 15.054688 25.164062 L 15.054688 24.617188 C 15.054688 24.585938 15.027344 24.558594 14.996094 24.558594 Z M 14.996094 24.558594 " fill-opacity="1" fill-rule="nonzero"/><path fill="#263238" d="M 13.90625 25.078125 C 13.9375 25.085938 13.96875 25.066406 13.976562 25.039062 L 14.117188 24.507812 C 14.125 24.480469 14.109375 24.449219 14.078125 24.441406 C 14.046875 24.433594 14.015625 24.449219 14.007812 24.480469 L 13.867188 25.007812 C 13.859375 25.039062 13.875 25.070312 13.90625 25.078125 Z M 13.90625 25.078125 " fill-opacity="1" fill-rule="nonzero"/><path fill="#263238" d="M 12.890625 24.660156 C 12.917969 24.675781 12.953125 24.664062 12.96875 24.636719 L 13.242188 24.164062 C 13.257812 24.136719 13.246094 24.101562 13.21875 24.089844 C 13.191406 24.070312 13.160156 24.082031 13.144531 24.109375 L 12.871094 24.582031 C 12.855469 24.609375 12.863281 24.644531 12.890625 24.660156 Z M 12.890625 24.660156 " fill-opacity="1" fill-rule="nonzero"/><path fill="#263238" d="M 12.097656 23.992188 L 12.484375 23.605469 C 12.503906 23.582031 12.503906 23.546875 12.484375 23.523438 C 12.460938 23.503906 12.425781 23.503906 12.402344 23.523438 L 12.015625 23.914062 C 11.996094 23.933594 11.996094 23.96875 12.015625 23.992188 C 12.039062 24.011719 12.074219 24.011719 12.097656 23.992188 Z M 12.097656 23.992188 " fill-opacity="1" fill-rule="nonzero"/><path fill="#263238" d="M 11.421875 23.140625 L 11.894531 22.867188 C 11.921875 22.851562 11.933594 22.816406 11.917969 22.792969 C 11.902344 22.765625 11.867188 22.753906 11.839844 22.769531 L 11.367188 23.042969 C 11.339844 23.058594 11.332031 23.09375 11.347656 23.121094 C 11.363281 23.148438 11.394531 23.15625 11.421875 23.140625 Z M 11.421875 23.140625 " fill-opacity="1" fill-rule="nonzero"/><path stroke-linecap="butt" transform="matrix(0.725806, 0, 0, 0.725806, 7.959966, 19.72236)" fill="none" stroke-linejoin="miter" d="M 0.00133782 0.500929 L 19.397866 0.500929 " stroke="#ffffff" stroke-width="1" stroke-opacity="1" stroke-miterlimit="4"/></svg>